<svg width="110" height="32" viewBox="0 0 110 32" fill="none" xmlns="http://www.w3.org/2000/svg">
<g clip-path="url(#clip0_107_1337)">
<path d="M17.5921 0C15.4268 0 13.4982 0.993517 12.2358 2.55977C12.1803 2.62697 12.1277 2.69711 12.0751 2.76724L11.8852 3.03607L9.98289 5.73902L9.64977 6.2124L10.1699 6.57766L10.7076 6.95462L12.5806 8.26956L13.7553 6.59227L14.8014 5.09908L14.8424 5.04356L14.857 5.02018C15.4472 4.14063 16.4524 3.57374 17.5891 3.57374C19.5177 3.57374 21.0577 5.22181 20.8765 7.19423C20.7216 8.91827 19.1846 10.1865 17.4547 10.1865H6.88253C5.05621 10.1865 3.57471 8.7108 3.57471 6.88449H-0.00195312C-0.00195312 9.89718 1.9354 12.4599 4.63251 13.3949L0.056489 19.9171L2.99613 21.9626L8.6621 13.769H17.3554C21.0226 13.769 24.2223 11.0017 24.459 7.34326C24.7191 3.33412 21.5427 0 17.5921 0Z" fill="#492BFF"/>
<path d="M14.9834 32C17.1487 32 19.0773 31.0065 20.3397 29.4403C20.3952 29.373 20.4478 29.3029 20.5004 29.2328L20.6903 28.964L22.5926 26.261L22.9257 25.7876L22.4056 25.4224L21.8679 25.0454L19.9949 23.7305L18.8202 25.4077L17.7741 26.9009L17.7331 26.9565L17.7185 26.9798C17.1283 27.8594 16.1231 28.4263 14.9864 28.4263C13.0578 28.4263 11.5178 26.7782 11.699 24.8058C11.8539 23.0817 13.3909 21.8136 15.1208 21.8136H25.6988C27.5251 21.8136 29.0066 23.2892 29.0066 25.1155H32.5833C32.5833 22.1028 30.6459 19.5402 27.9488 18.6051L32.5249 12.0829L29.5852 10.0375L23.9192 18.2311H15.226C11.5587 18.2311 8.35902 20.9983 8.12233 24.6568C7.86226 28.6659 11.0386 32 14.9893 32H14.9834Z" fill="#492BFF"/>
<path d="M41.7246 6.36142H44.0506V8.74586C44.5152 7.9715 45.1932 7.34033 46.0844 6.85526C46.9756 6.37019 47.9341 6.12766 48.9627 6.12766C50.4354 6.12766 51.7007 6.45785 52.7556 7.11533C53.8104 7.77572 54.6169 8.67573 55.1692 9.81828C55.7215 10.9637 55.9991 12.2495 55.9991 13.6842C55.9991 15.119 55.7215 16.4076 55.1692 17.5502C54.6169 18.6927 53.8134 19.5956 52.7556 20.2531C51.6978 20.9135 50.4354 21.2408 48.9627 21.2408C47.9341 21.2408 46.9698 20.9983 46.0698 20.5132C45.1698 20.0281 44.4948 19.3911 44.0506 18.5934V26.936H41.7246V6.36142ZM51.2741 18.4706C52.0017 18.0148 52.5686 17.3748 52.9747 16.5508C53.3809 15.7268 53.5854 14.7742 53.5854 13.6871C53.5854 12.0215 53.1442 10.692 52.2617 9.70431C51.3793 8.71664 50.1929 8.22281 48.6997 8.22281C47.7295 8.22281 46.8821 8.45073 46.1545 8.90658C45.4269 9.36243 44.86 10.0024 44.4539 10.8264C44.0477 11.6504 43.8431 12.606 43.8431 13.6901C43.8431 15.3557 44.2844 16.6852 45.1669 17.6729C46.0493 18.6606 47.2357 19.1544 48.7289 19.1544C49.699 19.1544 50.5465 18.9265 51.2711 18.4706H51.2741Z" fill="white"/>
<path d="M41.7246 6.36142H44.0506V8.74586C44.5152 7.9715 45.1932 7.34033 46.0844 6.85526C46.9756 6.37019 47.9341 6.12766 48.9627 6.12766C50.4354 6.12766 51.7007 6.45785 52.7556 7.11533C53.8104 7.77572 54.6169 8.67573 55.1692 9.81828C55.7215 10.9637 55.9991 12.2495 55.9991 13.6842C55.9991 15.119 55.7215 16.4076 55.1692 17.5502C54.6169 18.6927 53.8134 19.5956 52.7556 20.2531C51.6978 20.9135 50.4354 21.2408 48.9627 21.2408C47.9341 21.2408 46.9698 20.9983 46.0698 20.5132C45.1698 20.0281 44.4948 19.3911 44.0506 18.5934V26.936H41.7246V6.36142ZM51.2741 18.4706C52.0017 18.0148 52.5686 17.3748 52.9747 16.5508C53.3809 15.7268 53.5854 14.7742 53.5854 13.6871C53.5854 12.0215 53.1442 10.692 52.2617 9.70431C51.3793 8.71664 50.1929 8.22281 48.6997 8.22281C47.7295 8.22281 46.8821 8.45073 46.1545 8.90658C45.4269 9.36243 44.86 10.0024 44.4539 10.8264C44.0477 11.6504 43.8431 12.606 43.8431 13.6901C43.8431 15.3557 44.2844 16.6852 45.1669 17.6729C46.0493 18.6606 47.2357 19.1544 48.7289 19.1544C49.699 19.1544 50.5465 18.9265 51.2711 18.4706H51.2741Z" fill="white"/>
<path d="M60.0621 20.6943C59.2965 20.3261 58.7062 19.8089 58.2883 19.1397C57.8705 18.4706 57.663 17.7021 57.663 16.8284C57.663 15.8991 57.8997 15.078 58.376 14.3709C58.8494 13.6637 59.5302 13.1202 60.4098 12.7432C61.2923 12.3663 62.315 12.1764 63.478 12.1764H66.8793C67.1891 12.1764 67.4112 12.1179 67.5485 12.001C67.6829 11.8841 67.7531 11.7117 67.7531 11.478C67.7531 10.4698 67.4053 9.65458 66.7069 9.03509C66.0086 8.4156 65.0501 8.10586 63.8287 8.10586C63.1127 8.10586 62.4611 8.24028 61.8796 8.51203C61.2981 8.78379 60.8277 9.14321 60.4712 9.58737C60.1117 10.0345 59.913 10.5283 59.8751 11.0689H57.6367C57.7331 10.1396 58.0663 9.29516 58.639 8.54125C59.2117 7.78443 59.9569 7.19416 60.8773 6.76754C61.7978 6.34091 62.7913 6.12759 63.8579 6.12759C65.1173 6.12759 66.2131 6.35552 67.1423 6.81137C68.0716 7.26722 68.7933 7.90131 69.3076 8.71658C69.8219 9.52893 70.0791 10.4815 70.0791 11.5656V21.0128H67.7531V18.4852L67.5777 18.7745C67.2884 19.28 66.894 19.7154 66.4001 20.0836C65.9063 20.4518 65.3482 20.7381 64.7287 20.9427C64.1092 21.1472 63.44 21.2466 62.7241 21.2466C61.716 21.2466 60.8306 21.0625 60.065 20.6943H60.0621ZM66.517 17.9767C67.341 17.1147 67.7531 15.9283 67.7531 14.4147V14.0962H63.6241C62.54 14.0962 61.6721 14.3387 61.0234 14.8238C60.3747 15.3089 60.0504 15.9663 60.0504 16.8021C60.0504 17.5589 60.3251 18.1579 60.8803 18.605C61.4325 19.0521 62.1631 19.2742 63.0748 19.2742C64.5475 19.2742 65.6959 18.8417 66.5199 17.9797L66.517 17.9767Z" fill="white"/>
<path d="M60.0621 20.6943C59.2965 20.3261 58.7062 19.8089 58.2883 19.1397C57.8705 18.4706 57.663 17.7021 57.663 16.8284C57.663 15.8991 57.8997 15.078 58.376 14.3709C58.8494 13.6637 59.5302 13.1202 60.4098 12.7432C61.2923 12.3663 62.315 12.1764 63.478 12.1764H66.8793C67.1891 12.1764 67.4112 12.1179 67.5485 12.001C67.6829 11.8841 67.7531 11.7117 67.7531 11.478C67.7531 10.4698 67.4053 9.65458 66.7069 9.03509C66.0086 8.4156 65.0501 8.10586 63.8287 8.10586C63.1127 8.10586 62.4611 8.24028 61.8796 8.51203C61.2981 8.78379 60.8277 9.14321 60.4712 9.58737C60.1117 10.0345 59.913 10.5283 59.8751 11.0689H57.6367C57.7331 10.1396 58.0663 9.29516 58.639 8.54125C59.2117 7.78443 59.9569 7.19416 60.8773 6.76754C61.7978 6.34091 62.7913 6.12759 63.8579 6.12759C65.1173 6.12759 66.2131 6.35552 67.1423 6.81137C68.0716 7.26722 68.7933 7.90131 69.3076 8.71658C69.8219 9.52893 70.0791 10.4815 70.0791 11.5656V21.0128H67.7531V18.4852L67.5777 18.7745C67.2884 19.28 66.894 19.7154 66.4001 20.0836C65.9063 20.4518 65.3482 20.7381 64.7287 20.9427C64.1092 21.1472 63.44 21.2466 62.7241 21.2466C61.716 21.2466 60.8306 21.0625 60.065 20.6943H60.0621ZM66.517 17.9767C67.341 17.1147 67.7531 15.9283 67.7531 14.4147V14.0962H63.6241C62.54 14.0962 61.6721 14.3387 61.0234 14.8238C60.3747 15.3089 60.0504 15.9663 60.0504 16.8021C60.0504 17.5589 60.3251 18.1579 60.8803 18.605C61.4325 19.0521 62.1631 19.2742 63.0748 19.2742C64.5475 19.2742 65.6959 18.8417 66.5199 17.9797L66.517 17.9767Z" fill="white"/>
<path d="M72.623 6.36143H74.949V9.32737C75.2588 8.31925 75.738 7.57411 76.3867 7.08904C77.0354 6.60397 77.8828 6.36143 78.9319 6.36143H80.7933V8.42444H78.7887C77.3919 8.42444 76.4043 8.9738 75.8228 10.0667C75.2413 11.1625 74.952 12.6586 74.952 14.5579V21.0129H72.626V6.36143H72.623Z" fill="white"/>
<path d="M72.623 6.36143H74.949V9.32737C75.2588 8.31925 75.738 7.57411 76.3867 7.08904C77.0354 6.60397 77.8828 6.36143 78.9319 6.36143H80.7933V8.42444H78.7887C77.3919 8.42444 76.4043 8.9738 75.8228 10.0667C75.2413 11.1625 74.952 12.6586 74.952 14.5579V21.0129H72.626V6.36143H72.623Z" fill="white"/>
<path d="M82.4414 6.38782H84.7674V21.0393H82.4414V6.38782Z" fill="white"/>
<path d="M82.4414 6.38782H84.7674V21.0393H82.4414V6.38782Z" fill="white"/>
<path d="M91.5451 20.4869C90.8554 20.1187 90.3236 19.5869 89.9467 18.8885C89.5697 18.1901 89.3798 17.3778 89.3798 16.4456V8.45072H86.3262V6.38771H89.3798V1.7065H91.7058V6.38771H96.2117V8.45072H91.7058V16.3872C91.7058 17.1995 91.9132 17.8365 92.3311 18.2924C92.749 18.7482 93.3246 18.9762 94.061 18.9762H96.2117V21.0392H93.9733C93.0441 21.0392 92.2347 20.8551 91.5451 20.4869Z" fill="white"/>
<path d="M91.5451 20.4869C90.8554 20.1187 90.3236 19.5869 89.9467 18.8885C89.5697 18.1901 89.3798 17.3778 89.3798 16.4456V8.45072H86.3262V6.38771H89.3798V1.7065H91.7058V6.38771H96.2117V8.45072H91.7058V16.3872C91.7058 17.1995 91.9132 17.8365 92.3311 18.2924C92.749 18.7482 93.3246 18.9762 94.061 18.9762H96.2117V21.0392H93.9733C93.0441 21.0392 92.2347 20.8551 91.5451 20.4869Z" fill="white"/>
<path d="M102.229 21.3899L96.8789 6.38782H99.2926L103.392 18.2779L107.463 6.38782H109.876L102.551 26.9711H100.225L102.229 21.3899Z" fill="white"/>
<path d="M102.229 21.3899L96.8789 6.38782H99.2926L103.392 18.2779L107.463 6.38782H109.876L102.551 26.9711H100.225L102.229 21.3899Z" fill="white"/>
<path d="M84.8791 0.517258H82.3281V3.62346H84.8791V0.517258Z" fill="white"/>
<path d="M84.8791 0.517258H82.3281V3.62346H84.8791V0.517258Z" fill="white"/>
</g>
<defs>
<clipPath id="clip0_107_1337">
<rect width="109.88" height="32" fill="white"/>
</clipPath>
</defs>
</svg>
