<svg width="40" height="40" viewBox="0 0 40 40" fill="none" xmlns="http://www.w3.org/2000/svg">
<g clip-path="url(#clip0_107_1226)">
<path d="M20 40.0001C31.0834 40.0001 40 31.0835 40 20.0001C40 8.91672 31.0834 0.00012207 20 0.00012207C8.9166 0.00012207 0 8.91672 0 20.0001C0 31.0835 8.9166 40.0001 20 40.0001Z" fill="#2775CA"/>
<path d="M25.4986 23.1669C25.4986 20.2503 23.7486 19.2503 20.2486 18.8337C17.7486 18.5003 17.2486 17.8337 17.2486 16.6669C17.2486 15.5001 18.082 14.7503 19.7486 14.7503C21.2486 14.7503 22.082 15.2503 22.4986 16.5003C22.582 16.7503 22.832 16.9169 23.082 16.9169H24.4152C24.7486 16.9169 24.9986 16.6669 24.9986 16.3337V16.2503C24.6652 14.4169 23.1652 13.0003 21.2486 12.8337V10.8337C21.2486 10.5003 20.9986 10.2503 20.582 10.1669H19.332C18.9986 10.1669 18.7486 10.4169 18.6652 10.8337V12.7503C16.1652 13.0837 14.582 14.7503 14.582 16.8337C14.582 19.5837 16.2486 20.6669 19.7486 21.0837C22.082 21.5003 22.832 22.0003 22.832 23.3337C22.832 24.6671 21.6652 25.5837 20.082 25.5837C17.9152 25.5837 17.1652 24.6669 16.9152 23.4169C16.832 23.0837 16.582 22.9169 16.332 22.9169H14.9152C14.582 22.9169 14.332 23.1669 14.332 23.5003V23.5837C14.6652 25.6669 15.9986 27.1669 18.7486 27.5837V29.5837C18.7486 29.9169 18.9986 30.1669 19.4152 30.2503H20.6652C20.9986 30.2503 21.2486 30.0003 21.332 29.5837V27.5837C23.832 27.1669 25.4986 25.4169 25.4986 23.1669Z" fill="white"/>
<path d="M16.2458 31.5379C9.74577 29.2047 6.41237 21.9547 8.82917 15.5379C10.0792 12.0379 12.8292 9.37131 16.2458 8.12131C16.5792 7.95471 16.7458 7.70471 16.7458 7.28791V6.12131C16.7458 5.78791 16.5792 5.53791 16.2458 5.45471C16.1624 5.45471 15.9958 5.45471 15.9124 5.53791C7.99577 8.03791 3.66237 16.4547 6.16237 24.3713C7.66237 29.0379 11.2458 32.6213 15.9124 34.1213C16.2458 34.2879 16.5792 34.1213 16.6624 33.7879C16.7458 33.7047 16.7458 33.6213 16.7458 33.4547V32.2879C16.7458 32.0379 16.4958 31.7047 16.2458 31.5379ZM25.0792 5.53791C24.7458 5.37131 24.4124 5.53791 24.3292 5.87131C24.2458 5.95471 24.2458 6.03791 24.2458 6.20471V7.37131C24.2458 7.70471 24.4958 8.03791 24.7458 8.20471C31.2458 10.5379 34.5792 17.7879 32.1624 24.2047C30.9124 27.7047 28.1624 30.3713 24.7458 31.6213C24.4124 31.7879 24.2458 32.0379 24.2458 32.4547V33.6213C24.2458 33.9547 24.4124 34.2047 24.7458 34.2879C24.8292 34.2879 24.9958 34.2879 25.0792 34.2047C32.9958 31.7047 37.3292 23.2879 34.8292 15.3713C33.3292 10.6213 29.6624 7.03791 25.0792 5.53791Z" fill="white"/>
</g>
<defs>
<clipPath id="clip0_107_1226">
<rect width="40" height="40" fill="white"/>
</clipPath>
</defs>
</svg>
