<svg width="22" height="22" viewBox="0 0 22 22" fill="none" xmlns="http://www.w3.org/2000/svg">
<path d="M18.5625 6.1875H4.8125C4.63016 6.1875 4.4553 6.11507 4.32636 5.98614C4.19743 5.8572 4.125 5.68234 4.125 5.5C4.125 5.31766 4.19743 5.1428 4.32636 5.01386C4.4553 4.88493 4.63016 4.8125 4.8125 4.8125H16.5C16.6823 4.8125 16.8572 4.74007 16.9861 4.61114C17.1151 4.4822 17.1875 4.30734 17.1875 4.125C17.1875 3.94266 17.1151 3.7678 16.9861 3.63886C16.8572 3.50993 16.6823 3.4375 16.5 3.4375H4.8125C4.26619 3.43976 3.7429 3.65779 3.35659 4.04409C2.97029 4.4304 2.75226 4.95369 2.75 5.5V16.5C2.75226 17.0463 2.97029 17.5696 3.35659 17.9559C3.7429 18.3422 4.26619 18.5602 4.8125 18.5625H18.5625C18.9272 18.5625 19.2769 18.4176 19.5348 18.1598C19.7926 17.9019 19.9375 17.5522 19.9375 17.1875V7.5625C19.9375 7.19783 19.7926 6.84809 19.5348 6.59023C19.2769 6.33237 18.9272 6.1875 18.5625 6.1875ZM15.4688 13.4062C15.2648 13.4062 15.0654 13.3458 14.8958 13.2325C14.7262 13.1191 14.5941 12.9581 14.516 12.7696C14.4379 12.5812 14.4175 12.3739 14.4573 12.1738C14.4971 11.9738 14.5953 11.79 14.7395 11.6458C14.8838 11.5016 15.0675 11.4034 15.2676 11.3636C15.4676 11.3238 15.675 11.3442 15.8634 11.4222C16.0518 11.5003 16.2129 11.6325 16.3262 11.8021C16.4395 11.9717 16.5 12.171 16.5 12.375C16.5 12.6485 16.3914 12.9108 16.198 13.1042C16.0046 13.2976 15.7423 13.4062 15.4688 13.4062Z" fill="#39414D"/>
</svg>
